Coordinates
version=1
nRows=11
nColumns=40
inDegrees=yes

Units are S.I. units (second, meters, Newtons, ...)
Angles are in degrees.

endheader
time	pelvis_tilt	pelvis_list	pelvis_rotation	pelvis_tx	pelvis_ty	pelvis_tz	hip_flexion_r	hip_adduction_r	hip_rotation_r	knee_angle_r	knee_angle_r_beta	ankle_angle_r	subtalar_angle_r	mtp_angle_r	hip_flexion_l	hip_adduction_l	hip_rotation_l	knee_angle_l	knee_angle_l_beta	ankle_angle_l	subtalar_angle_l	mtp_angle_l	lumbar_extension	lumbar_bending	lumbar_rotation	arm_flex_r	arm_add_r	arm_rot_r	elbow_flex_r	pro_sup_r	wrist_flex_r	wrist_dev_r	arm_flex_l	arm_add_l	arm_rot_l	elbow_flex_l	pro_sup_l	wrist_flex_l	wrist_dev_l
     34.89500000	     -4.75265943	     -3.69021260	     -1.02226610	      0.99969742	      0.93182568	      0.44501094	     42.84481311	     -5.16494412	     -5.65030846	     64.16115542	     64.16115542	     -2.01796108	    -13.61906198	     -0.76775723	     15.37555865	     -5.04893145	     -6.86256325	     20.20725751	     20.20725751	     11.84983253	    -10.02277195	     -4.73624399	    -13.79930885	      3.68185594	      2.75010746	      5.79651436	    -13.68340505	     -3.48080083	     84.55395540	     45.27600621	      0.00000000	      0.00000000	     21.48593129	    -15.27381803	      9.87163107	     49.72580512	     45.74610668	      0.00000000	      0.00000000
     34.90657143	     -4.68340601	     -3.60830107	     -1.22369422	      0.99928855	      0.93222480	      0.44487602	     43.03188547	     -5.16264682	     -5.88453633	     60.94986571	     60.94986571	     -1.95538017	    -13.50482877	     -0.83624717	     14.38157477	     -4.91683655	     -7.06519587	     19.57508308	     19.57508308	     11.98718758	     -9.97500732	     -5.25221357	    -13.91981861	      3.66998166	      2.87980944	      4.80723904	    -13.38122297	     -4.23826349	     80.02009472	     45.43454789	      0.00000000	      0.00000000	     22.69793797	    -15.88764592	     10.18881793	     52.71434040	     45.82048124	      0.00000000	      0.00000000
     34.91814286	     -4.66180027	     -3.50081526	     -1.45607001	      0.99901308	      0.93241865	      0.44485217	     43.08339103	     -5.14543446	     -6.16557292	     57.43945278	     57.43945278	     -1.83808659	    -13.30274625	     -0.81857966	     13.42627629	     -4.76526635	     -7.31127232	     18.94407330	     18.94407330	     12.16454776	     -9.87127353	     -5.71419998	    -13.99214971	      3.63197015	      3.06748053	      3.92408212	    -13.24103915	     -4.87746730	     75.56964929	     45.58448881	      0.00000000	      0.00000000	     23.91235432	    -16.32036671	     10.04504298	     55.48932112	     45.92942564	      0.00000000	      0.00000000
     34.92971429	     -4.64206531	     -3.37187022	     -1.71126462	      0.99891676	      0.93248591	      0.44495154	     42.92883993	     -5.10431274	     -6.50399209	     53.63632477	     53.63632477	     -1.69406534	    -12.96929416	     -0.90506529	     12.43197511	     -4.59482492	     -7.61150010	     18.25935835	     18.25935835	     12.31372135	     -9.74122912	     -6.23794239	    -14.06305231	      3.56556290	      3.24036204	      3.26268600	    -13.15233024	     -5.33037366	     70.75541305	     45.73468799	      0.00000000	      0.00000000	     24.93905473	    -16.75834761	      9.63775049	     58.58354140	     46.07177925	      0.00000000	      0.00000000
     34.94128571	     -4.63810344	     -3.22431547	     -1.96527671	      0.99902749	      0.93238978	      0.44515366	     42.57944302	     -5.05295529	     -6.91923684	     49.57584879	     49.57584879	     -1.47850915	    -12.34533022	     -0.93894355	     11.44603007	     -4.41014165	     -7.94643306	     17.58548767	     17.58548767	     12.49520492	     -9.53002769	     -6.75861321	    -14.10187541	      3.46678840	      3.45722379	      2.65555794	    -13.20567429	     -5.69490030	     65.99590916	     45.88127955	      0.00000000	      0.00000000	     25.92308847	    -17.07897336	      9.13160924	     61.54954388	     46.21121378	      0.00000000	      0.00000000
     34.95285714	     -4.57926633	     -3.10606306	     -2.17262255	      0.99934913	      0.93223740	      0.44536208	     41.94386143	     -4.97010844	     -7.46128462	     45.28932674	     45.28932674	     -1.09902097	    -11.27468925	     -0.60903269	     10.40569477	     -4.24178444	     -8.20889627	     16.94334578	     16.94334578	     12.80190077	     -9.26127059	     -6.98567764	    -14.26819368	      3.44678681	      4.19396788	      1.12414362	    -13.79103367	     -5.69409163	     63.16987665	     45.96332732	      0.00000000	      0.00000000	     27.33166084	    -16.73427398	      8.79669618	     63.70537121	     46.29239157	      0.00000000	      0.00000000
     34.96442857	     -4.58706328	     -2.84831599	     -2.40333126	      0.99998610	      0.93171208	      0.44577155	     41.24953748	     -4.94137286	     -7.92868721	     40.94634904	     40.94634904	     -0.75069657	     -9.90963209	     -0.56501940	      9.37745611	     -3.95475601	     -8.68940621	     16.20754404	     16.20754404	     12.87929181	     -8.86889405	     -7.97799491	    -14.15150869	      3.16735729	      3.68994940	      1.91156307	    -13.25990053	     -6.27957530	     55.85803625	     46.20344750	      0.00000000	      0.00000000	     27.47735211	    -17.70727347	      8.04488080	     67.74296623	     46.46635446	      0.00000000	      0.00000000
     34.97600000	     -4.48193941	     -2.63439263	     -2.60263204	      1.00091833	      0.93116104	      0.44614477	     40.23132682	     -4.86762757	     -8.50670895	     36.53724312	     36.53724312	     -0.22207892	     -8.00640654	     -0.04252517	      8.21927192	     -3.67545282	     -9.02417783	     15.50827602	     15.50827602	     13.22109938	     -8.50974408	     -8.29349594	    -14.28909492	      3.00240242	      4.40988304	      0.43841948	    -13.85779092	     -6.10605122	     53.09489197	     46.27380260	      0.00000000	      0.00000000	     28.69327017	    -17.29054431	      7.53606128	     70.12248637	     46.56637299	      0.00000000	      0.00000000
     34.98757143	     -4.34574391	     -2.37157531	     -2.74689735	      1.00223057	      0.93041265	      0.44653858	     39.05543776	     -4.83680240	     -9.13082129	     32.22986350	     32.22986350	      0.29520620	     -5.81340415	      0.75945777	      7.01776552	     -3.34587292	     -9.40023123	     14.82235036	     14.82235036	     13.51978334	     -8.02222732	     -8.74846010	    -14.36270226	      2.81814748	      4.88583991	     -0.71730132	    -14.24530445	     -6.05747516	     49.90538588	     46.36827637	      0.00000000	      0.00000000	     29.62934394	    -17.12611650	      7.15288742	     72.55552113	     46.65428506	      0.00000000	      0.00000000
     34.99914286	     -4.28584859	     -2.00900234	     -2.84621933	      1.00386532	      0.92932954	      0.44698155	     38.00972861	     -4.92616101	     -9.72373786	     28.46252617	     28.46252617	      1.72535543	     -3.09070825	      4.11527593	      5.79083976	     -2.87916739	     -9.68492922	     13.89622133	     13.89622133	     13.46703458	     -7.71137381	    -10.05321667	    -14.21535207	      2.43103489	      3.48467236	      1.27220079	    -13.76703781	     -5.71973835	     41.30601227	     46.58246056	      0.00000000	      0.00000000	     28.63063117	    -18.22767021	      4.99823432	     77.52069129	     46.98619038	      0.00000000	      0.00000000
     35.01071429	     -4.06382098	     -1.59965238	     -2.99177444	      1.00588385	      0.92809898	      0.44757012	     36.73774935	     -5.05215181	    -10.41783762	     24.96220301	     24.96220301	      2.37689366	     -0.40090254	      5.38533159	      4.39925736	     -2.37649799	    -10.13738760	     13.10455235	     13.10455235	     13.85600468	     -7.03983197	    -10.48096983	    -14.30467922	      2.02268210	      4.01815730	     -0.19036503	    -14.13251150	     -5.49929263	     39.07534566	     46.62332688	      0.00000000	      0.00000000	     29.55570135	    -17.96159178	      4.83956823	     79.84723563	     47.06913973	      0.00000000	      0.00000000
